# xmcd
#
# Track frame offsets:
#	150
#	35235
#	66194
#	92259
#	117383
#	149826
#	189883
#	214790
#	236693
#	280287
#	311508
#
# Disc length: 4484 seconds
#
# Revision: 0
# Processed by: cddbd v1.5.2PL0 Copyright (c) Steve Scherf et al.
# Submitted via: EasyCDDAExtractor 2010.6.0.0
#
DISCID=a511820b
DTITLE=Various Artist - Dance Classics - Italo Edition Vol. 2
DYEAR=2012
DGENRE=Dance
TTITLE0=Doctor's Cat - Feel The Drive (House Drive Mix)
TTITLE1=Koto - Dragon's Legend (Extended Vocal Version)
TTITLE2=Ken Lazlo - Tonight (Extended)
TTITLE3=Grant Miller - Colder Than Ice (12" Version)
TTITLE4=Laserdance - Humanoid Invasion (12" Version)
TTITLE5=Mike Mareen - Agent Of Liverty (12'' Version)
TTITLE6=Silver Pozzoli - Step By Step (Extended Version)
TTITLE7=Scotch - Mirage (12'' Version)
TTITLE8=Gazebo - Masterpiece (Extended Version)
TTITLE9=Spagna - Easy Lady (Extended Version)
TTITLE10=East Side Beat - Ride Like The Wind (Piano Version)
EXTD=
EXTT0=
EXTT1=
EXTT2=
EXTT3=
EXTT4=
EXTT5=
EXTT6=
EXTT7=
EXTT8=
EXTT9=
EXTT10=
PLAYORDER=
